<?xml version="1.0" encoding="UTF-8"?>
<svg width="22px" height="20px" viewBox="0 0 22 20" version="1.1" xmlns="http://www.w3.org/2000/svg" xmlns:xlink="http://www.w3.org/1999/xlink">
    <!-- Generator: Sketch 59.1 (86144) - https://sketch.com -->
    <title>ic-actions-calendar</title>
    <desc>Created with Sketch.</desc>
    <g id="Page-1" stroke="none" stroke-width="1" fill="none" fill-rule="evenodd">
        <g id="서브-가이드" transform="translate(-267.000000, -713.000000)" fill="#ABB3C9">
            <g id="Group-6" transform="translate(139.000000, 706.000000)">
                <g id="ic-actions-calendar" transform="translate(128.000000, 7.000000)">
                    <path d="M19,2 L18,2 L18,1 C18,0.44771525 17.5522847,0 17,0 C16.4477153,0 16,0.44771525 16,1 L16,2 L6,2 L6,1 C6,0.44771525 5.55228475,0 5,0 C4.44771525,0 4,0.44771525 4,1 L4,2 L3,2 C1.34314575,2 0,3.34314575 0,5 L0,17 C0,18.6568542 1.34314575,20 3,20 L19,20 C20.6568542,20 22,18.6568542 22,17 L22,5 C22,3.34314575 20.6568542,2 19,2 Z M2,5 C2,4.44771525 2.44771525,4 3,4 L19,4 C19.5522847,4 20,4.44771525 20,5 L20,6 L2,6 L2,5 Z M20,17 C20,17.5522847 19.5522847,18 19,18 L3,18 C2.44771525,18 2,17.5522847 2,17 L2,8 L20,8 L20,17 Z" id="Shape"></path>
                    <rect id="Rectangle" fill-rule="nonzero" x="4" y="10" width="3" height="3" rx="0.8"></rect>
                    <rect id="Rectangle" fill-rule="nonzero" x="9" y="10" width="3" height="3" rx="0.8"></rect>
                </g>
            </g>
        </g>
    </g>
</svg>